<!--?xml version="1.0" encoding="utf-8"?-->
<!-- Generator: Adobe Illustrator 22.1.0, SVG Export Plug-In . SVG Version: 6.00 Build 0)  -->
<svg version="1.1" id="_x31_1" xmlns="http://www.w3.org/2000/svg" xmlns:xlink="http://www.w3.org/1999/xlink" x="0px" y="0px" viewBox="0 0 800 181.705" style="enable-background:new 0 0 800 181.705;" xml:space="preserve">
<style type="text/css">
	.st0{fill:#040000;}
</style>
<g>
	<path class="st0" d="M116.337,100.734v80.466h43.04v-80.466H116.337z M134.129,150.331h-6.564v-6.564h6.564V150.331z
		 M134.129,135.36h-6.564v-6.564h6.564V135.36z M134.129,120.382h-6.564v-6.563h6.564V120.382z M148.512,150.331h-6.563v-6.564
		h6.563V150.331z M148.512,135.36h-6.563v-6.564h6.563V135.36z M148.512,120.382h-6.563v-6.563h6.563V120.382z"></path>
	<path class="st0" d="M480.562,100.734v80.466h43.04v-80.466H480.562z M498.354,150.331h-6.564v-6.564h6.564V150.331z
		 M498.354,135.36h-6.564v-6.564h6.564V135.36z M498.354,120.382h-6.564v-6.563h6.564V120.382z M512.735,150.331h-6.562v-6.564
		h6.562V150.331z M512.735,135.36h-6.562v-6.564h6.562V135.36z M512.735,120.382h-6.562v-6.563h6.562V120.382z"></path>
	<path class="st0" d="M23.248,82.747l-0.32,98.402l31.812,0.103l0.321-98.401L23.248,82.747z M36.201,143.442l-4.852-0.017
		l0.026-8.026l4.852,0.017L36.201,143.442z M36.261,125.134l-4.852-0.017l0.026-8.027l4.852,0.017L36.261,125.134z M36.32,106.817
		l-4.852-0.017l0.026-8.026l4.852,0.017L36.32,106.817z M46.83,143.476l-4.849-0.015l0.026-8.027l4.85,0.015L46.83,143.476z
		 M46.89,125.168l-4.85-0.016l0.025-8.026l4.85,0.015L46.89,125.168z M46.949,106.852l-4.85-0.017l0.027-8.025l4.85,0.017
		L46.949,106.852z"></path>
	<path class="st0" d="M373.695,48.323v132.876h55.308V48.323H373.695z M396.559,130.224h-8.436v-10.838h8.436V130.224z
		 M396.559,105.502h-8.436V94.664h8.436V105.502z M396.559,80.769h-8.436V69.931h8.436V80.769z M415.04,130.224h-8.432v-10.838
		h8.432V130.224z M415.04,105.502h-8.432V94.664h8.432V105.502z M415.04,80.769h-8.432V69.931h8.432V80.769z"></path>
	<path class="st0" d="M722.237,116.543v64.657h40.903v-64.657H722.237z M739.145,156.396h-6.239v-5.275h6.239V156.396z
		 M739.145,144.365h-6.239v-5.273h6.239V144.365z M739.145,132.331h-6.239v-5.273h6.239V132.331z M752.814,156.396h-6.237v-5.275
		h6.237V156.396z M752.814,144.365h-6.237v-5.273h6.237V144.365z M752.814,132.331h-6.237v-5.273h6.237V132.331z"></path>
	<rect x="178.48" y="136.918" class="st0" width="30.353" height="44.281"></rect>
	<rect x="289.118" y="139.145" class="st0" width="24.087" height="42.054"></rect>
	<rect x="2" y="118.51" class="st0" width="24.087" height="62.69"></rect>
	<rect x="641.945" y="139.145" class="st0" width="24.087" height="42.054"></rect>
	<rect x="105.398" y="139.145" class="st0" width="18.374" height="42.054"></rect>
	<rect x="778.197" y="139.145" class="st0" width="19.803" height="42.054"></rect>
	<rect x="351.092" y="131.204" class="st0" width="24.088" height="49.995"></rect>
	<rect x="518.219" y="146.185" class="st0" width="24.088" height="35.015"></rect>
	<rect x="466.795" y="163.529" class="st0" width="24.089" height="17.67"></rect>
	<rect x="533.932" y="163.529" class="st0" width="24.088" height="17.67"></rect>
	<polygon class="st0" points="269.728,103.535 269.728,70.8 210.677,70.8 210.677,181.199 290.267,181.199 290.267,103.535 	"></polygon>
	<polygon class="st0" points="702.278,141.87 702.278,125.292 722.546,125.292 722.546,181.199 695.23,181.199 695.23,141.87 	"></polygon>
	<polygon class="st0" points="199.568,160.145 175.301,135.88 175.301,135.88 170.769,131.347 166.234,135.88 141.968,160.146 
		146.501,164.679 152.789,158.391 152.789,181.199 188.239,181.199 188.239,157.884 195.035,164.679 	"></polygon>
	<polygon class="st0" points="491.192,148.055 452.99,109.857 452.99,109.857 445.856,102.72 438.717,109.857 400.517,148.058 
		407.653,155.193 417.552,145.293 417.552,181.199 473.359,181.199 473.359,144.496 484.055,155.193 	"></polygon>
	<polygon class="st0" points="610.76,157.68 583.653,130.576 583.653,130.576 578.591,125.513 573.526,130.576 546.42,157.684 
		551.482,162.745 558.508,155.721 558.508,181.199 598.107,181.199 598.107,155.156 605.696,162.745 	"></polygon>
	<polygon class="st0" points="89.856,162.204 67.963,140.315 67.963,140.315 63.874,136.225 59.784,140.315 37.892,162.207 
		41.981,166.296 47.655,160.623 47.655,181.199 79.637,181.199 79.637,160.166 85.766,166.296 	"></polygon>
	<polygon class="st0" points="112.711,162.204 90.818,140.315 90.818,140.315 86.73,136.225 82.639,140.315 60.748,162.207 
		64.836,166.296 70.51,160.623 70.51,181.199 102.492,181.199 102.492,160.166 108.622,166.296 	"></polygon>
	<polygon class="st0" points="794.861,164.53 775.65,145.32 775.65,145.32 772.06,141.73 768.471,145.32 749.26,164.532 
		752.847,168.12 757.826,163.14 757.826,181.199 785.893,181.199 785.893,162.74 791.272,168.12 	"></polygon>
	<path class="st0" d="M230.867,134.243c0.689-1.565,1.075-3.296,1.075-5.116c0-7.018-5.689-12.707-12.707-12.707
		c-0.555,0-1.1,0.039-1.636,0.107c-1.394-5.502-6.38-9.575-12.317-9.575c-5.547,0-10.26,3.554-11.993,8.509
		c-0.319-0.023-0.639-0.039-0.963-0.039c-7.292,0-13.205,5.912-13.205,13.206c0,1.65,0.306,3.229,0.858,4.686
		c-4.931,2.373-8.333,7.415-8.333,13.253c0,8.117,6.582,14.7,14.7,14.7c1.163,0,2.293-0.139,3.378-0.396
		c2.154,2.093,5.092,3.386,8.333,3.386c0.168,0,0.332-0.017,0.499-0.023v16.964h12.955v-17.545c0.491,0.063,0.988,0.105,1.495,0.105
		c3.276,0,6.244-1.319,8.404-3.454c0.791,0.138,1.603,0.215,2.434,0.215c7.774,0,14.077-6.302,14.077-14.078
		C237.922,141.226,235.082,136.676,230.867,134.243z"></path>
	<path class="st0" d="M126.589,134.243c0.69-1.565,1.076-3.296,1.076-5.116c0-7.018-5.689-12.707-12.707-12.707
		c-0.555,0-1.1,0.039-1.636,0.107c-1.394-5.502-6.38-9.575-12.317-9.575c-5.547,0-10.26,3.554-11.993,8.509
		c-0.319-0.023-0.639-0.039-0.963-0.039c-7.293,0-13.205,5.912-13.205,13.206c0,1.65,0.306,3.229,0.858,4.686
		c-4.931,2.373-8.333,7.415-8.333,13.253c0,8.117,6.582,14.7,14.7,14.7c1.163,0,2.293-0.139,3.378-0.396
		c2.155,2.093,5.092,3.386,8.333,3.386c0.168,0,0.332-0.017,0.499-0.023v16.964h12.955v-17.545c0.491,0.063,0.988,0.105,1.495,0.105
		c3.276,0,6.244-1.319,8.403-3.454c0.792,0.138,1.604,0.215,2.435,0.215c7.774,0,14.077-6.302,14.077-14.078
		C133.645,141.226,130.805,136.676,126.589,134.243z"></path>
	<path class="st0" d="M636.937,61.542V50.868h-12.779v10.674h-26.051v119.657h45.222V61.542H636.937z M616.799,144.131h-6.897
		v-7.882h6.897V144.131z M616.799,126.154h-6.897v-7.88h6.897V126.154z M616.799,108.169h-6.897v-7.882h6.897V108.169z
		 M616.799,90.2h-6.897v-7.88h6.897V90.2z M631.911,144.131h-6.895v-7.882h6.895V144.131z M631.911,126.154h-6.895v-7.88h6.895
		V126.154z M631.911,108.169h-6.895v-7.882h6.895V108.169z M631.911,90.2h-6.895v-7.88h6.895V90.2z"></path>
	<path class="st0" d="M323.549,99.997v-6.099h-9.912v6.099h-4.956v81.202h46.511V99.997H323.549z M323.18,156.044h-5.349v-5.348
		h5.349V156.044z M323.18,143.844h-5.349v-5.348h5.349V143.844z M323.18,131.639h-5.349v-5.348h5.349V131.639z M323.18,119.446
		h-5.349v-5.349h5.349V119.446z M334.617,156.044h-5.349v-5.348h5.349V156.044z M334.617,143.844h-5.349v-5.348h5.349V143.844z
		 M334.617,131.639h-5.349v-5.348h5.349V131.639z M334.617,119.446h-5.349v-5.349h5.349V119.446z M346.337,156.044h-5.348v-5.348
		h5.348V156.044z M346.337,143.844h-5.348v-5.348h5.348V143.844z M346.337,131.639h-5.348v-5.348h5.348V131.639z M346.337,119.446
		h-5.348v-5.349h5.348V119.446z"></path>
	<path class="st0" d="M673.784,117.015v-4.821h-7.835v4.821h-3.918l-0.001,64.186h36.763l0.001-64.186H673.784z M673.489,161.316
		h-4.227v-4.227h4.227V161.316z M673.489,151.672h-4.227v-4.228h4.228L673.489,151.672z M673.49,142.025h-4.228v-4.227h4.228
		V142.025z M673.49,132.387h-4.228v-4.227h4.228V132.387z M682.53,161.316h-4.228v-4.227h4.228V161.316z M682.53,151.672h-4.228
		l0.001-4.228h4.228L682.53,151.672z M682.532,142.025h-4.228v-4.227h4.228V142.025z M682.532,132.387h-4.228v-4.227h4.228V132.387z
		 M691.794,161.316h-4.227v-4.227h4.227V161.316z M691.794,151.672h-4.227v-4.228h4.228L691.794,151.672z M691.796,142.025h-4.228
		v-4.227h4.228V142.025z M691.796,132.387h-4.228v-4.227h4.228V132.387z"></path>
	<path class="st0" d="M564.782,167.547l1.794,13.652h5.135l-5.693-49.611l0.107-0.163l-0.147-0.202l-12.096-107.91l-1.08,0.249
		V0.454h-3.715v23.109l-1.081-0.25l-11.991,106.976l-0.053,0.072l0.039,0.057l-5.824,50.782h5.134l1.902-14.607l13.391-16.215
		L564.782,167.547z M553.481,146.892l7.912-9.579l2.485,22.167L553.481,146.892z M541.26,130.49l9.392-12.8l9.969,13.584
		l-10.017,12.132l-9.503-11.506L541.26,130.49z M553.35,114.015l4.712-6.422l1.697,15.159L553.35,114.015z M544.665,100.104
		l5.891-9.77l6.497,11.285l-6.401,8.72l-6.19-8.434L544.665,100.104z M545.338,94.102l1.205-10.741l2.575,4.475L545.338,94.102z
		 M552.035,87.883l3.22-5.338l1.52,13.573L552.035,87.883z M551.312,23.906l-0.367,0.084l-0.368-0.084H551.312z M550.944,44.087
		l3.849,34.338l-4.196,6.958l-3.583-6.226L550.944,44.087z M543.749,108.28l4.207,5.735l-5.723,7.802L543.749,108.28z
		 M538.117,158.526l2.296-20.488l7.311,8.854L538.117,158.526z"></path>
</g>
</svg>
